<svg aria-hidden="true" style="width:0;height:0;position:absolute;overflow:hidden" xmlns="http://www.w3.org/2000/svg"><defs><symbol id="icon-bookmark" viewBox="0 0 24 24"><path d="M18.419 21.814A1 1 0 0 0 20 21V5a2.997 2.997 0 0 0-3-3H7a2.997 2.997 0 0 0-3 3v16a1 1 0 0 0 1.581.813L12 17.229zM18 19.057l-5.419-3.871a1 1 0 0 0-1.162 0L6 19.057V5c0-.276.111-.525.293-.707S6.724 4 7 4h10c.276 0 .525.111.707.293S18 4.724 18 5z"/></symbol><symbol id="icon-bookmark-fill" viewBox="0 0 24 24"><path d="M18.419 21.814 19 22l1-1V5l-.879-2.121L17 2H7l-2.121.879L4 5v16l.186.581 1.395.232L12 17.229z"/></symbol><symbol id="icon-chevron-thin-right" viewBox="0 0 20 20"><path d="M13.25 10 6.109 2.58a.697.697 0 0 1 0-.979.68.68 0 0 1 .969 0l7.83 7.908a.697.697 0 0 1 0 .979l-7.83 7.908c-.268.271-.701.27-.969 0s-.268-.707 0-.979L13.25 10z"/></symbol><symbol id="icon-home" viewBox="0 0 20 20"><path d="M18.672 11H17v6c0 .445-.194 1-1 1h-4v-6H8v6H4c-.806 0-1-.555-1-1v-6H1.328c-.598 0-.47-.324-.06-.748L9.292 2.22c.195-.202.451-.302.708-.312.257.01.513.109.708.312l8.023 8.031c.411.425.539.749-.059.749z"/></symbol><symbol id="icon-key" viewBox="0 0 20 20"><path d="M17.691 4.725c-.503-2.977-3.22-4.967-6.069-4.441S6.366 3.1 6.869 6.079c.107.641.408 1.644.763 2.365l-5.175 7.723c-.191.285-.299.799-.242 1.141l.333 1.971a.612.612 0 0 0 .7.514l1.516-.281c.328-.059.744-.348.924-.639l2.047-3.311.018-.022 1.386-.256 2.39-3.879c.785.139 1.912.092 2.578-.031 2.848-.526 4.087-3.67 3.584-6.649zm-2.525 1.527c-.784 1.17-1.584.346-2.703-.475-1.119-.818-2.135-1.322-1.352-2.492s2.326-1.455 3.447-.635c1.12.819 1.391 2.432.608 3.602z"/></symbol><symbol id="icon-laptop" viewBox="0 0 20 20"><path d="M19.754 15.631 18 13V4c0-1.102-.9-2-2-2H4c-1.101 0-2 .898-2 2v9L.246 15.631C0 16 0 16.213 0 16.5v.5c0 .5.5 1 .999 1h18.002c.499 0 .999-.5.999-1v-.5c0-.287 0-.5-.246-.869zM7 16l.6-1h4.8l.6 1H7zm9-4H4V4h12v8z"/></symbol><symbol id="icon-location-pin" viewBox="0 0 20 20"><path d="M10 2.009c-2.762 0-5 2.229-5 4.99 0 4.774 5 11 5 11s5-6.227 5-11c0-2.76-2.238-4.99-5-4.99zm0 7.751a2.7 2.7 0 1 1 0-5.4 2.7 2.7 0 0 1 0 5.4z"/></symbol><symbol id="icon-magnifying-glass" viewBox="0 0 20 20"><path d="m17.545 15.467-3.779-3.779a6.15 6.15 0 0 0 .898-3.21c0-3.417-2.961-6.377-6.378-6.377S2.1 4.87 2.1 8.287c0 3.416 2.961 6.377 6.377 6.377a6.15 6.15 0 0 0 3.115-.844l3.799 3.801a.953.953 0 0 0 1.346 0l.943-.943c.371-.371.236-.84-.135-1.211zM4.004 8.287c0-2.366 1.917-4.283 4.282-4.283s4.474 2.107 4.474 4.474c0 2.365-1.918 4.283-4.283 4.283s-4.473-2.109-4.473-4.474z"/></symbol><symbol id="icon-map" viewBox="0 0 20 20"><path d="m19.447 3.718-6-3a1 1 0 0 0-.895 0l-5.63 2.815-5.606-1.869A1 1 0 0 0 0 2.613v13.001c0 .379.214.725.553.894l6 3a1.006 1.006 0 0 0 .894 0l5.63-2.814 5.606 1.869a.999.999 0 0 0 1.316-.949V4.612a.996.996 0 0 0-.552-.894zM8 5.231l4-2v11.763l-4 2V5.231zM2 4l4 1.333v11.661l-4-2V4zm16 12.227-4-1.334V3.231l4 2v10.996z"/></symbol><symbol id="icon-star" viewBox="0 0 20 20"><path d="m10 1.3 2.388 6.722H18.8l-5.232 3.948 1.871 6.928L10 14.744l-5.438 4.154 1.87-6.928-5.233-3.948h6.412L10 1.3z"/></symbol><symbol id="icon-user" viewBox="0 0 20 20"><path d="M7.725 2.146c-1.016.756-1.289 1.953-1.239 2.59.064.779.222 1.793.222 1.793s-.313.17-.313.854c.109 1.717.683.976.801 1.729.284 1.814.933 1.491.933 2.481 0 1.649-.68 2.42-2.803 3.334C3.196 15.845 1 17 1 19v1h18v-1c0-2-2.197-3.155-4.328-4.072-2.123-.914-2.801-1.684-2.801-3.334 0-.99.647-.667.932-2.481.119-.753.692-.012.803-1.729 0-.684-.314-.854-.314-.854s.158-1.014.221-1.793c.065-.817-.398-2.561-2.3-3.096-.333-.34-.558-.881.466-1.424-2.24-.105-2.761 1.067-3.954 1.929z"/></symbol><symbol id="icon-back-in-time" viewBox="0 0 20 20"><path d="M11 1.799c-4.445 0-8.061 3.562-8.169 7.996V10H.459l3.594 3.894L7.547 10H4.875v-.205C4.982 6.492 7.683 3.85 11 3.85c3.386 0 6.131 2.754 6.131 6.15S14.386 16.15 11 16.15a6.099 6.099 0 0 1-3.627-1.193l-1.406 1.504A8.13 8.13 0 0 0 11 18.199c4.515 0 8.174-3.67 8.174-8.199S15.515 1.799 11 1.799zM10 5v5a1.01 1.01 0 0 0 .293.707l3.2 3.2c.283-.183.55-.389.787-.628L12 11V5h-2z"/></symbol><symbol id="icon-circle-with-cross" viewBox="0 0 20 20"><path d="M10 1.6a8.4 8.4 0 1 0 0 16.8 8.4 8.4 0 0 0 0-16.8zm4.789 11.461L13.06 14.79 10 11.729l-3.061 3.06L5.21 13.06 8.272 10 5.211 6.939 6.94 5.211 10 8.271l3.061-3.061 1.729 1.729L11.728 10l3.061 3.061z"/></symbol><symbol id="icon-loader" viewBox="0 0 24 24"><path d="M11 2v4a1 1 0 0 0 2 0V2a1 1 0 0 0-2 0zm0 16v4a1 1 0 0 0 2 0v-4a1 1 0 0 0-2 0zM4.223 5.637l2.83 2.83a.999.999 0 1 0 1.414-1.414l-2.83-2.83a.999.999 0 1 0-1.414 1.414zm11.31 11.31 2.83 2.83a.999.999 0 1 0 1.414-1.414l-2.83-2.83a.999.999 0 1 0-1.414 1.414zM2 13h4a1 1 0 0 0 0-2H2a1 1 0 0 0 0 2zm16 0h4a1 1 0 0 0 0-2h-4a1 1 0 0 0 0 2zM5.637 19.777l2.83-2.83a.999.999 0 1 0-1.414-1.414l-2.83 2.83a.999.999 0 1 0 1.414 1.414zm11.31-11.31 2.83-2.83a.999.999 0 1 0-1.414-1.414l-2.83 2.83a.999.999 0 1 0 1.414 1.414z"/></symbol></defs></svg>